<?xml version="1.0" encoding="UTF-8" standalone="no"?>
<svg
   version="1.1"
   id="Layer_1"
   x="0px"
   y="0px"
   width="100%"
   viewBox="0 0 300 300"
   enable-background="new 0 0 300 300"
   xml:space="preserve"
   sodipodi:docname="boeuf.svg"
   inkscape:version="1.2.2 (b0a84865, 2022-12-01)"
   xmlns:inkscape="http://www.inkscape.org/namespaces/inkscape"
   xmlns:sodipodi="http://sodipodi.sourceforge.net/DTD/sodipodi-0.dtd"
   xmlns="http://www.w3.org/2000/svg"
   xmlns:svg="http://www.w3.org/2000/svg"><defs
   id="defs15" /><sodipodi:namedview
   id="namedview13"
   pagecolor="#ffffff"
   bordercolor="#000000"
   borderopacity="0.25"
   inkscape:showpageshadow="2"
   inkscape:pageopacity="0.0"
   inkscape:pagecheckerboard="0"
   inkscape:deskcolor="#d1d1d1"
   showgrid="false"
   inkscape:zoom="0.78666667"
   inkscape:cx="-73.09322"
   inkscape:cy="150"
   inkscape:window-width="1440"
   inkscape:window-height="456"
   inkscape:window-x="0"
   inkscape:window-y="25"
   inkscape:window-maximized="0"
   inkscape:current-layer="Layer_1" />
<path
   fill="#FDFDFD"
   opacity="1.000000"
   stroke="none"
   d=" M1.000000,99.000000   C1.000000,97.611000 1.000000,96.222008 1.255298,94.776337   C2.771095,93.078049 4.148105,91.512283 5.274026,89.783035   C16.247467,72.929512 26.678606,55.694687 38.284260,39.290119   C47.203075,26.683384 57.585899,15.112381 67.317673,3.080786   C67.814690,3.311353 68.311699,3.541920 68.808716,3.772487   C61.243839,25.263187 59.250050,47.314610 61.163857,70.106934   C75.476082,71.918167 89.569977,73.701775 103.663879,75.485382   C103.931053,74.829987 104.198235,74.174591 104.465408,73.519196   C103.019897,72.392334 101.648697,71.150848 100.116562,70.157600   C91.478844,64.557938 90.815773,57.618355 94.809914,48.429241   C99.267273,38.174423 102.197006,27.255598 106.009422,15.981762   C115.325607,25.304161 124.025261,34.214905 132.991180,42.849167   C135.492172,45.257637 135.612335,47.057941 134.092117,50.036232   C130.107697,57.842270 126.522369,65.852020 122.509590,73.900543   C122.227135,74.259415 122.213074,74.498322 122.199013,74.737228   C122.630730,74.692833 123.062454,74.648438 123.827103,74.477722   C132.044800,70.433830 139.861816,66.367889 147.866913,62.713940   C149.636963,61.905998 152.388519,61.858440 154.145721,62.655926   C161.285583,65.896271 168.201324,69.628067 175.232819,73.111778   C176.506226,73.742676 177.935104,74.059769 180.395416,74.897270   C175.196152,64.432777 170.635605,55.253845 166.388412,46.705582   C176.506042,36.586628 186.251358,26.840029 196.213547,16.876543   C200.846786,30.891567 205.604706,45.087639 210.128128,59.358036   C210.470749,60.438942 209.470795,62.344563 208.540955,63.359100   C204.926559,67.302765 201.088455,71.041397 197.333618,74.856331   C197.550659,75.145126 197.767700,75.433922 197.984726,75.722717   C212.321533,73.800774 226.658325,71.878830 240.893906,69.970459   C242.636383,47.188183 240.752625,25.528622 233.570160,4.373849   C233.739166,4.245748 234.044098,3.950931 234.383713,3.991870   C242.539062,13.268558 251.096527,21.984234 258.013885,31.849890   C271.795837,51.505955 284.660645,71.804512 297.977570,91.788879   C298.627502,92.764183 299.976532,93.273628 301.000000,94.000000   C301.000000,95.389000 301.000000,96.777992 300.770569,98.215637   C285.120453,110.098015 267.257721,116.281647 248.620117,120.634315   C243.173325,121.906380 237.677261,122.967415 232.069427,124.153580   C234.841568,137.239624 237.629791,149.836182 240.060181,162.501419   C240.413071,164.340424 239.644928,167.050110 238.382217,168.428864   C233.210815,174.075439 227.670990,179.386917 222.219131,184.773499   C218.480927,188.466919 214.664047,192.080704 210.796387,195.813049   C218.638641,201.718460 225.716766,206.934769 232.616348,212.377396   C233.555664,213.118362 234.359619,215.307007 233.948334,216.291412   C228.406631,229.555191 222.638138,242.724213 216.907501,255.959198   C207.837234,253.961441 199.115036,252.040344 190.051590,250.044083   C187.003250,262.073456 183.972168,274.034698 180.960022,285.921204   C160.769089,285.921204 141.120819,285.921204 121.039764,285.921204   C118.027336,274.038025 115.005882,262.119263 111.952026,250.072662   C102.651360,252.092926 93.866150,254.001221 84.927383,255.942886   C78.845039,241.717850 72.937111,227.900711 67.002205,214.020493   C75.043297,207.967575 82.810402,202.120911 90.986908,195.966080   C81.679718,186.669205 72.682068,177.585190 63.549065,168.639374   C61.706516,166.834579 61.081596,165.302017 61.689610,162.627197   C64.585251,149.888519 67.175240,137.080368 69.890144,124.220436   C62.973896,122.668228 56.310631,121.316849 49.722446,119.665863   C33.258671,115.540062 17.196033,110.458817 3.723345,99.465637   C3.102362,98.958946 1.920588,99.139519 1.000000,99.000000  z"
   id="path2" />
<path
   fill="#000000"
   opacity="1.000000"
   stroke="none"
   d=" M1.000000,99.468658   C1.920588,99.139519 3.102362,98.958946 3.723345,99.465637   C17.196033,110.458817 33.258671,115.540062 49.722446,119.665863   C56.310631,121.316849 62.973896,122.668228 69.890144,124.220436   C67.175240,137.080368 64.585251,149.888519 61.689610,162.627197   C61.081596,165.302017 61.706516,166.834579 63.549065,168.639374   C72.682068,177.585190 81.679718,186.669205 90.986908,195.966080   C82.810402,202.120911 75.043297,207.967575 67.002205,214.020493   C72.937111,227.900711 78.845039,241.717850 84.927383,255.942886   C93.866150,254.001221 102.651360,252.092926 111.952026,250.072662   C115.005882,262.119263 118.027336,274.038025 121.039764,285.921204   C141.120819,285.921204 160.769089,285.921204 180.960022,285.921204   C183.972168,274.034698 187.003250,262.073456 190.051590,250.044083   C199.115036,252.040344 207.837234,253.961441 216.907501,255.959198   C222.638138,242.724213 228.406631,229.555191 233.948334,216.291412   C234.359619,215.307007 233.555664,213.118362 232.616348,212.377396   C225.716766,206.934769 218.638641,201.718460 210.796387,195.813049   C214.664047,192.080704 218.480927,188.466919 222.219131,184.773499   C227.670990,179.386917 233.210815,174.075439 238.382217,168.428864   C239.644928,167.050110 240.413071,164.340424 240.060181,162.501419   C237.629791,149.836182 234.841568,137.239624 232.069427,124.153580   C237.677261,122.967415 243.173325,121.906380 248.620117,120.634315   C267.257721,116.281647 285.120453,110.098015 300.770569,98.632141   C301.000000,166.291458 301.000000,233.582901 301.000000,300.937195   C201.104095,300.937195 101.208153,300.937195 1.000000,300.937195   C1.000000,233.979431 1.000000,166.958374 1.000000,99.468658  z"
   id="path4"
   style="fill:none;fill-opacity:1" />
<path
   fill="#000000"
   opacity="1.000000"
   stroke="none"
   d=" M233.401169,4.501949   C240.752625,25.528622 242.636383,47.188183 240.893906,69.970459   C226.658325,71.878830 212.321533,73.800774 197.984726,75.722717   C197.767700,75.433922 197.550659,75.145126 197.333618,74.856331   C201.088455,71.041397 204.926559,67.302765 208.540955,63.359100   C209.470795,62.344563 210.470749,60.438942 210.128128,59.358036   C205.604706,45.087639 200.846786,30.891567 196.213547,16.876543   C186.251358,26.840029 176.506042,36.586628 166.388412,46.705582   C170.635605,55.253845 175.196152,64.432777 180.395416,74.897270   C177.935104,74.059769 176.506226,73.742676 175.232819,73.111778   C168.201324,69.628067 161.285583,65.896271 154.145721,62.655926   C152.388519,61.858440 149.636963,61.905998 147.866913,62.713940   C139.861816,66.367889 132.044800,70.433830 123.654839,74.265961   C123.025757,74.047211 122.901871,73.913895 122.777985,73.780586   C126.522369,65.852020 130.107697,57.842270 134.092117,50.036232   C135.612335,47.057941 135.492172,45.257637 132.991180,42.849167   C124.025261,34.214905 115.325607,25.304161 106.009422,15.981762   C102.197006,27.255598 99.267273,38.174423 94.809914,48.429241   C90.815773,57.618355 91.478844,64.557938 100.116562,70.157600   C101.648697,71.150848 103.019897,72.392334 104.465408,73.519196   C104.198235,74.174591 103.931053,74.829987 103.663879,75.485382   C89.569977,73.701775 75.476082,71.918167 61.163857,70.106934   C59.250050,47.314610 61.243839,25.263187 68.808716,3.772487   C68.311699,3.541920 67.814690,3.311353 67.317673,3.080786   C57.585899,15.112381 47.203075,26.683384 38.284260,39.290119   C26.678606,55.694687 16.247467,72.929512 5.274026,89.783035   C4.148105,91.512283 2.771095,93.078049 1.255298,94.359833   C1.000000,63.027924 1.000000,32.055847 1.000000,1.041885   C100.881981,1.041885 200.763992,1.041885 301.000000,1.041885   C301.000000,31.686653 301.000000,62.374668 301.000000,93.531342   C299.976532,93.273628 298.627502,92.764183 297.977570,91.788879   C284.660645,71.804512 271.795837,51.505955 258.013885,31.849890   C251.096527,21.984234 242.539062,13.268558 234.327682,3.760213   C233.755081,3.825727 233.578125,4.163837 233.401169,4.501949  z"
   id="path6"
   style="fill:none;fill-opacity:1" />
<path
   fill="#000000"
   opacity="1.000000"
   stroke="none"
   d=" M123.321907,74.392281   C123.062454,74.648438 122.630730,74.692833 122.199013,74.737228   C122.213074,74.498322 122.227135,74.259415 122.509583,73.900543   C122.901871,73.913895 123.025757,74.047211 123.321907,74.392281  z"
   id="path8" />
<path
   fill="#FDFDFD"
   opacity="1.000000"
   stroke="none"
   d=" M233.570160,4.373848   C233.578125,4.163837 233.755081,3.825727 233.988068,3.719273   C234.044098,3.950931 233.739166,4.245748 233.570160,4.373848  z"
   id="path10" />
<path
   style="fill:#800080;fill-opacity:1;stroke-width:1.27119"
   d="m 117.04635,267.26695 c -2.34116,-9.61335 -4.33696,-17.58929 -4.43513,-17.72431 -0.0982,-0.13502 -6.26055,1.06776 -13.694199,2.67286 l -13.515718,2.91836 -8.406304,-19.83388 c -4.623468,-10.90864 -8.393845,-20.20538 -8.378618,-20.65945 0.01523,-0.45407 5.175992,-4.65882 11.468365,-9.34392 6.292373,-4.6851 11.440678,-8.88126 11.440678,-9.32483 0,-0.44356 -6.684685,-7.50863 -14.854857,-15.70014 l -14.854856,-14.89365 4.049771,-18.86871 c 2.227375,-10.37778 4.049772,-19.72573 4.049772,-20.77321 0,-1.39044 -4.977368,-3.16097 -18.4399,-6.55936 C 34.4701,114.88401 24.597299,110.95726 6.7330571,101.38117 3.7942893,99.805848 1.3631452,98.129828 1.3305147,97.65668 1.2978847,97.183532 3.4996229,93.465311 6.2232676,89.393968 8.9469122,85.322625 18.327463,71.122881 27.068935,57.838983 40.124413,37.999349 65.740126,4.226527 66.830798,5.4152915 c 0.153932,0.1677761 -0.79517,4.5145594 -2.109116,9.6595185 -3.096004,12.122884 -4.980326,27.395056 -4.958561,40.188452 0.02802,16.472363 -1.735587,15.045582 22.493658,18.197626 11.58584,1.507231 21.557131,2.436366 22.158431,2.064744 2.02832,-1.253573 1.11432,-2.707646 -3.87561,-6.165673 -9.08077,-6.292978 -9.162531,-8.285806 -1.283978,-31.295701 l 6.888448,-20.118216 12.69841,12.319352 c 6.98412,6.775643 13.40877,13.258784 14.277,14.406978 1.31719,1.741937 0.51562,4.341128 -4.84075,15.696638 -3.53064,7.484958 -6.12013,13.908238 -5.75441,14.273956 0.36572,0.365719 6.94931,-2.305368 14.6302,-5.935748 l 13.96527,-6.60069 13.43215,6.446735 c 12.67502,6.083351 15.95653,7.281576 15.95653,5.826426 0,-0.341171 -2.99152,-6.635446 -6.64783,-13.987276 l -6.64783,-13.366964 13.91457,-13.957854 c 7.65301,-7.676819 14.2914,-13.538265 14.75199,-13.025437 0.46059,0.51283 3.56706,9.22691 6.90329,19.364622 3.33624,10.137712 6.32065,19.12557 6.63201,19.973021 0.31138,0.847449 -2.43591,4.71503 -6.10506,8.594625 -3.66917,3.879595 -6.37175,7.353263 -6.00575,7.71926 0.366,0.365999 10.53469,-0.616798 22.59711,-2.183992 l 21.93166,-2.849444 -0.64474,-21.664872 c -0.48955,-16.450222 -1.29186,-24.08671 -3.33331,-31.726693 -1.47871,-5.534003 -2.51666,-10.2337229 -2.30657,-10.4438219 1.3948,-1.3947859 23.62156,27.9345089 41.72048,55.0521869 11.81663,17.704911 22.05132,32.190747 22.74374,32.190747 0.69243,0 1.25896,0.832505 1.25896,1.850011 0,2.586353 -15.9442,11.779232 -29.05713,16.753322 -6.04188,2.29186 -17.56364,5.69693 -25.60389,7.56683 -8.04025,1.86989 -14.76252,3.5165 -14.93836,3.65912 -0.17584,0.14262 1.39725,8.3592 3.49576,18.25908 2.09851,9.89986 3.81548,19.52289 3.81548,21.38451 0,2.60753 -3.33297,6.76858 -14.51494,18.12119 l -14.51493,14.73645 11.28043,8.26271 c 6.20425,4.54449 11.51277,8.83474 11.79673,9.5339 0.43937,1.08179 -4.97696,14.59739 -14.32912,35.75598 l -2.31941,5.24752 -13.12821,-2.95852 c -7.22051,-1.62718 -13.33913,-2.74758 -13.59693,-2.48979 -0.25781,0.2578 -1.88142,6.09217 -3.60802,12.96524 -1.72662,6.87309 -3.70154,14.64164 -4.38873,17.26346 l -1.24944,4.76695 h -29.55375 -29.55374 z"
   id="path992" /></svg>
